<svg xmlns="http://www.w3.org/2000/svg" viewBox="0 0 1200 400" width="1200" height="400">
  <defs>
    <linearGradient id="bg" x1="0%" y1="0%" x2="100%" y2="100%">
      <stop offset="0%" style="stop-color:#0a0a0a"/>
      <stop offset="100%" style="stop-color:#111827"/>
    </linearGradient>
    <linearGradient id="accent" x1="0%" y1="0%" x2="100%" y2="0%">
      <stop offset="0%" style="stop-color:#00df82"/>
      <stop offset="100%" style="stop-color:#00df82;stop-opacity:0.4"/>
    </linearGradient>
  </defs>

  <!-- Background -->
  <rect width="1200" height="400" fill="url(#bg)"/>

  <!-- Subtle grid -->
  <g opacity="0.03" stroke="#ffffff" stroke-width="0.5">
    <line x1="0" y1="100" x2="1200" y2="100"/>
    <line x1="0" y1="200" x2="1200" y2="200"/>
    <line x1="0" y1="300" x2="1200" y2="300"/>
    <line x1="300" y1="0" x2="300" y2="400"/>
    <line x1="600" y1="0" x2="600" y2="400"/>
    <line x1="900" y1="0" x2="900" y2="400"/>
  </g>

  <!-- Accent line top -->
  <rect x="0" y="0" width="1200" height="2" fill="#00df82"/>

  <!-- FailSafe logo (actual icon from getfailsafe.com) scaled and positioned -->
  <g transform="translate(80, 115) scale(1.7)">
    <path fill="#00df82" d="M65.55,100l-1.82-.72c-5.68-2.26-11.05-5.23-15.98-8.8-4.93,3.57-10.3,6.53-15.98,8.8l-1.82.72L0,82.71v-34.58l1.54-1.21c4.8-3.79,10.06-6.96,15.61-9.44-.62-6.05-.51-12.19.37-18.24l.28-1.94L47.75,0l29.95,17.29.28,1.94c.88,6.06,1,12.19.37,18.24,5.55,2.49,10.81,5.65,15.61,9.45l1.54,1.21v34.58s-29.95,17.29-29.95,17.29ZM54.24,85.21c3.33,2.23,6.91,4.18,10.7,5.82l22.49-12.99v-25.97c-3.31-2.46-6.79-4.58-10.39-6.36-1.63,7.52-4.42,14.81-8.31,21.53-3.88,6.73-8.8,12.79-14.5,17.96ZM8.08,78.05l22.49,12.99c3.79-1.64,7.36-3.59,10.7-5.82-5.7-5.17-10.61-11.23-14.5-17.96-3.88-6.73-6.67-14.01-8.31-21.53-3.6,1.77-7.08,3.89-10.39,6.36v25.97ZM25.98,42.57c2.8,14.66,10.47,27.95,21.77,37.7,11.3-9.75,18.97-23.04,21.77-37.7-14.1-4.91-29.44-4.91-43.54,0ZM47.75,30.91h0c7.77,0,15.47,1.23,22.8,3.57.26-4,.17-8.07-.31-12.17l-22.49-12.99-22.49,12.98c-.48,4.1-.57,8.17-.31,12.17,7.33-2.35,15.03-3.57,22.8-3.57Z"/>
  </g>

  <!-- Title text -->
  <text x="280" y="175" font-family="system-ui, -apple-system, 'Segoe UI', sans-serif" font-size="56" font-weight="700" fill="#ffffff" letter-spacing="-1">FailSafe Swarm</text>

  <!-- Subtitle -->
  <text x="280" y="230" font-family="system-ui, -apple-system, 'Segoe UI', sans-serif" font-size="28" font-weight="400" fill="#9ca3af">on EVMBench</text>

  <!-- Tagline -->
  <text x="280" y="290" font-family="system-ui, -apple-system, 'Segoe UI', sans-serif" font-size="22" fill="#6b7280">Threat-Model-Driven Vulnerability Detection</text>
  <text x="280" y="325" font-family="system-ui, -apple-system, 'Segoe UI', sans-serif" font-size="22" fill="#6b7280">Multi-Agent Pipeline · 40 Audits · 22 Perfect Scores</text>

  <!-- Accent line bottom -->
  <rect x="0" y="398" width="1200" height="2" fill="#00df82"/>
</svg>
